<svg width="860" height="819" viewBox="0 0 860 819" fill="none" xmlns="http://www.w3.org/2000/svg">
<path d="M232.817 717.507C243.021 715.773 249.707 706.499 247.751 696.792C245.795 687.086 235.938 680.623 225.735 682.357C215.531 684.091 208.845 693.366 210.801 703.072C212.756 712.778 222.613 719.241 232.817 717.507Z" fill="#1B4A94"/>
<path d="M634.086 136.54C644.29 134.806 650.976 125.532 649.02 115.825C647.065 106.119 637.208 99.6564 627.004 101.39C616.8 103.125 610.114 112.399 612.07 122.105C614.026 131.811 623.883 138.274 634.086 136.54Z" fill="#1B4A94"/>
<path d="M499.106 752.61C300.18 786.432 107.314 659.999 69.1723 470.768C31.0303 281.537 161.835 100.074 360.761 66.2524C559.687 32.4311 752.553 158.864 790.695 348.095C828.837 537.326 698.032 718.789 499.106 752.61ZM361.614 70.4818C165.14 103.886 35.9465 283.113 73.6184 470.012C111.29 656.91 301.779 781.785 498.253 748.381C694.727 714.976 823.921 535.749 786.249 348.851C748.577 161.952 558.088 37.0774 361.614 70.4818Z" fill="#1B4A94"/>
<path d="M473.873 627.638C347.407 649.131 224.798 568.742 200.559 448.44C176.32 328.138 259.488 212.778 385.954 191.286C512.419 169.793 635.027 250.176 659.266 370.477C683.505 490.779 600.337 606.139 473.871 627.632L473.873 627.638ZM386.274 192.874C260.724 214.211 178.158 328.727 202.222 448.157C226.285 567.588 348.005 647.393 473.554 626.057C599.103 604.72 681.668 490.197 657.604 370.767C633.541 251.336 511.823 171.538 386.274 192.874Z" fill="#1B4A94"/>
</svg>
