<?xml version="1.0" encoding="utf-8"?>
<!-- Generator: Adobe Illustrator 28.2.0, SVG Export Plug-In . SVG Version: 6.00 Build 0)  -->
<svg version="1.1" id="Camada_1" xmlns="http://www.w3.org/2000/svg" xmlns:xlink="http://www.w3.org/1999/xlink" x="0px" y="0px"
	 viewBox="0 0 798 1180" style="enable-background:new 0 0 798 1180;" xml:space="preserve">
<style type="text/css">
	.st0{fill:#1B4A94;}
</style>
<path class="st0" d="M491.7,1026c11.6-5.3,16.2-18.8,10.3-30s-20-16-31.6-10.6c-11.6,5.3-16.2,18.8-10.3,30
	C466,1026.5,480.2,1031.3,491.7,1026z"/>
<path class="st0" d="M764,193.1c11.6-5.3,16.2-18.8,10.3-30c-5.9-11.2-20-16-31.6-10.6c-11.6,5.3-16.2,18.8-10.3,30
	C738.3,193.7,752.5,198.5,764,193.1z"/>
<path class="st0" d="M412.6,197.5c102-47,214.5-53.2,317.3-25.5c14.5,3.9,28.9,8.5,43,13.8c8.5,3.2,16.8,6.6,25.1,10.2v-5.9
	c-7.4-3.2-14.9-6.3-22.5-9.1c-14.7-5.5-29.6-10.3-44.8-14.4c-104-27.9-217.6-21.5-320.6,26c-225.6,104-316.2,366.6-201.9,585.3
	c54.5,104.3,145.8,180,251,219.5c14.7,5.5,29.6,10.3,44.8,14.4c95.1,25.6,198.3,22.4,294.1-14.7v-5.9
	c-95.5,37.6-198.5,40.9-293.4,15.2c-14.5-3.9-28.9-8.5-43-13.8c-104.1-38.9-194.6-113.8-248.5-217
	C100.3,559.6,189.8,300.3,412.6,197.5z"/>
<path class="st0" d="M486.5,338.9c104.2-48.1,225.6-29.4,311.5,38.1v-2.6c-86.4-67.2-208-85.5-312.5-37.4
	c-143.4,66.1-201,233.1-128.4,372.1c72.6,139,248.4,198.3,391.9,132.2v0c17.6-8.1,34-17.8,49-28.8V810
	c-15.2,11.3-31.9,21.2-49.9,29.5c-142.4,65.7-316.9,6.8-389-131.2S344.1,404.6,486.5,338.9z"/>
</svg>
