<svg width="840" height="872" viewBox="0 0 840 872" fill="none" xmlns="http://www.w3.org/2000/svg">
<path d="M124.279 624.478C133.695 627.313 143.234 621.926 145.584 612.447C147.934 602.968 142.205 592.986 132.789 590.151C123.373 587.317 113.834 592.703 111.484 602.182C109.134 611.661 114.862 621.643 124.279 624.478Z" fill="#1B4A94"/>
<path d="M707.553 282.511C716.969 285.346 726.508 279.959 728.858 270.48C731.208 261.001 725.48 251.019 716.063 248.184C706.647 245.35 697.108 250.736 694.758 260.215C692.408 269.694 698.137 279.676 707.553 282.511Z" fill="#1B4A94"/>
<path d="M337.078 771.494C153.495 716.229 41.4156 520.922 87.2317 336.119C133.048 151.315 319.674 45.9292 503.257 101.194C686.84 156.459 798.92 351.766 753.104 536.569C707.288 721.373 520.661 826.759 337.078 771.494ZM502.233 105.325C320.913 50.7409 136.586 154.828 91.3348 337.354C46.0836 519.88 156.782 712.78 338.102 767.363C519.422 821.947 703.749 717.86 749 535.334C794.252 352.808 683.553 159.908 502.233 105.325Z" fill="#1B4A94"/>
<path d="M367.345 649.41C367.345 649.411 367.343 649.413 367.341 649.412C250.633 614.277 179.38 490.111 208.506 372.627C237.633 255.141 356.281 188.141 472.991 223.275C589.701 258.409 660.957 382.569 631.831 500.055C602.704 617.54 484.058 684.539 367.349 649.407C367.347 649.407 367.345 649.408 367.345 649.41ZM472.606 224.827C356.742 189.947 238.957 256.454 210.041 373.089C181.125 489.723 251.863 612.989 367.727 647.868C483.592 682.747 601.379 616.234 630.294 499.6C659.21 382.965 588.471 259.706 472.606 224.827Z" fill="#1B4A94"/>
</svg>
