<svg width="942" height="899" viewBox="0 0 942 899" fill="none" xmlns="http://www.w3.org/2000/svg">
<path d="M172.871 791.98C185.615 792.034 195.483 781.828 194.911 769.185C194.34 756.542 183.546 746.249 170.802 746.195C158.058 746.141 148.19 756.347 148.761 768.99C149.333 781.633 160.127 791.926 172.871 791.98Z" fill="#1B4A94"/>
<path d="M771.634 152.258C784.378 152.312 794.246 142.106 793.674 129.463C793.103 116.819 782.309 106.526 769.565 106.473C756.821 106.419 746.953 116.624 747.524 129.268C748.096 141.911 758.89 152.204 771.634 152.258Z" fill="#1B4A94"/>
<path d="M491.422 896.269C242.966 895.219 31.7727 693.832 20.6326 447.34C9.49243 200.847 202.559 1.16881 451.015 2.21852C699.471 3.26824 910.664 204.655 921.804 451.147C932.944 697.64 739.877 897.319 491.422 896.269ZM451.264 7.72776C205.871 6.69098 15.1829 203.909 26.1857 447.363C37.1885 690.817 245.779 889.723 491.173 890.76C736.566 891.796 927.254 694.578 916.251 451.124C905.248 207.67 696.658 8.76454 451.264 7.72776Z" fill="#1B4A94"/>
<path d="M484.062 733.436C326.111 732.769 191.844 604.737 184.762 448.033C177.68 291.33 300.423 164.384 458.375 165.051C616.326 165.718 750.592 293.742 757.675 450.445C764.757 607.149 642.014 734.095 484.062 733.428L484.062 733.436ZM458.468 167.12C301.661 166.458 179.808 292.474 186.839 448.042C193.87 603.61 327.162 730.713 483.969 731.376C640.777 732.039 762.629 606.013 755.598 450.445C748.567 294.877 615.275 167.783 458.468 167.12Z" fill="#1B4A94"/>
</svg>
