<svg width="916" height="873" viewBox="0 0 916 873" fill="none" xmlns="http://www.w3.org/2000/svg">
<path d="M247.939 764.11C258.805 762.263 265.926 752.386 263.843 742.05C261.76 731.713 251.263 724.83 240.397 726.677C229.531 728.524 222.41 738.4 224.493 748.737C226.575 759.074 237.073 765.956 247.939 764.11Z" fill="#1B4A94"/>
<path d="M675.272 145.408C686.138 143.561 693.258 133.684 691.176 123.348C689.093 113.011 678.596 106.128 667.729 107.975C656.863 109.822 649.743 119.698 651.825 130.035C653.908 140.372 664.405 147.254 675.272 145.408Z" fill="#1B4A94"/>
<path d="M531.524 801.494C319.677 837.512 114.285 702.867 73.6653 501.345C33.0458 299.823 172.347 106.573 384.194 70.555C596.04 34.5369 801.433 169.182 842.052 370.704C882.672 572.226 743.371 765.476 531.524 801.494ZM385.101 75.0592C175.866 110.633 38.2814 301.502 78.4001 500.54C118.519 699.578 321.381 832.564 530.616 796.99C739.852 761.415 877.436 570.547 837.318 371.509C797.199 172.471 594.337 39.485 385.101 75.0592Z" fill="#1B4A94"/>
<path d="M504.652 668.404C369.972 691.293 239.399 605.682 213.586 477.566C187.772 349.451 276.343 226.598 411.022 203.709C545.702 180.821 676.273 266.424 702.087 394.54C727.901 522.656 639.33 645.509 504.651 668.397L504.652 668.404ZM411.363 205.401C277.659 228.124 189.73 350.078 215.357 477.265C240.983 604.453 370.608 689.442 504.313 666.72C638.017 643.997 725.944 522.036 700.318 394.848C674.691 267.66 545.067 182.679 411.363 205.401Z" fill="#1B4A94"/>
</svg>
