<svg width="797" height="825" viewBox="0 0 797 825" fill="none" xmlns="http://www.w3.org/2000/svg">
<path d="M120.106 625.427C129.733 627.433 138.768 621.239 140.286 611.592C141.805 601.945 135.231 592.497 125.604 590.491C115.977 588.484 106.942 594.678 105.424 604.325C103.906 613.973 110.479 623.42 120.106 625.427Z" fill="#1B4A94"/>
<path d="M671.496 234.122C681.123 236.128 690.158 229.935 691.676 220.287C693.195 210.64 686.621 201.193 676.994 199.186C667.367 197.179 658.332 203.373 656.814 213.021C655.296 222.668 661.869 232.115 671.496 234.122Z" fill="#1B4A94"/>
<path d="M344.863 753.417C157.176 714.296 28.5669 529.455 58.169 341.372C87.7711 153.288 264.546 32.1013 452.233 71.2226C639.92 110.344 768.529 295.185 738.927 483.268C709.325 671.351 532.55 792.538 344.863 753.417ZM451.571 75.4264C266.197 36.7873 91.6011 156.481 62.3639 342.246C33.1267 528.011 160.151 710.574 345.525 749.213C530.898 787.852 705.495 668.158 734.732 482.394C763.969 296.629 636.945 114.065 451.571 75.4264Z" fill="#1B4A94"/>
<path d="M364.419 629.166C364.419 629.168 364.417 629.169 364.415 629.169C245.098 604.297 163.336 486.784 182.155 367.215C200.974 247.645 313.359 170.599 432.678 195.47C551.996 220.341 633.761 337.847 614.942 457.418C596.123 576.987 483.74 654.032 364.423 629.164C364.421 629.163 364.419 629.164 364.419 629.166ZM432.429 197.049C313.975 172.358 202.406 248.838 183.724 367.542C165.041 486.247 246.211 602.907 364.666 627.597C483.12 652.288 594.69 575.802 613.372 457.098C632.055 338.393 550.884 221.739 432.429 197.049Z" fill="#1B4A94"/>
</svg>
