<svg width="966" height="1000" viewBox="0 0 966 1000" fill="none" xmlns="http://www.w3.org/2000/svg">
<path d="M147.2 806.195C159.854 807.707 170.825 798.697 171.703 786.071C172.582 773.446 163.036 761.985 150.382 760.474C137.728 758.963 126.758 767.972 125.879 780.598C125 793.224 134.546 804.684 147.2 806.195Z" fill="#1B4A94"/>
<path d="M815.217 239.172C827.871 240.684 838.842 231.674 839.72 219.048C840.599 206.423 831.053 194.962 818.399 193.451C805.745 191.94 794.775 200.949 793.896 213.575C793.017 226.201 802.563 237.661 815.217 239.172Z" fill="#1B4A94"/>
<path d="M451.728 946.242C205.024 916.775 18.2564 692.55 35.3885 446.402C52.5206 200.253 267.164 23.9723 513.868 53.4389C760.573 82.9054 947.34 307.131 930.208 553.279C913.076 799.428 698.433 975.708 451.728 946.242ZM513.485 58.9404C269.822 29.8371 57.8234 203.946 40.9025 447.06C23.9816 690.175 208.448 911.637 452.111 940.74C695.775 969.844 907.773 795.735 924.694 552.621C941.615 309.506 757.149 88.0437 513.485 58.9404Z" fill="#1B4A94"/>
<path d="M463.046 783.637C306.208 764.904 187.47 622.352 198.361 465.867C209.252 309.382 345.713 197.311 502.551 216.044C659.389 234.777 778.128 377.32 767.236 533.805C756.345 690.29 619.885 802.361 463.047 783.628L463.046 783.637ZM502.407 218.111C346.705 199.513 211.236 310.762 200.423 466.113C189.611 621.465 307.487 762.982 463.189 781.579C618.891 800.176 754.361 688.919 765.173 533.567C775.986 378.216 658.109 236.708 502.407 218.111Z" fill="#1B4A94"/>
</svg>
