<svg width="746" height="772" viewBox="0 0 746 772" fill="none" xmlns="http://www.w3.org/2000/svg">
<path d="M113.586 622.095C123.35 623.261 131.816 616.309 132.494 606.566C133.172 596.824 125.806 587.981 116.041 586.814C106.277 585.648 97.8117 592.6 97.1336 602.343C96.4555 612.085 103.821 620.929 113.586 622.095Z" fill="#1B4A94"/>
<path d="M629.057 184.555C638.821 185.722 647.286 178.769 647.964 169.027C648.642 159.284 641.276 150.441 631.512 149.275C621.748 148.109 613.282 155.061 612.604 164.803C611.926 174.546 619.292 183.389 629.057 184.555Z" fill="#1B4A94"/>
<path d="M348.573 730.161C158.205 707.423 14.0874 534.401 27.3073 344.463C40.5271 154.524 206.155 18.4981 396.523 41.2357C586.891 63.9734 731.008 236.995 717.788 426.934C704.569 616.873 538.941 752.899 348.573 730.161ZM396.227 45.481C208.206 23.0236 44.619 157.373 31.5621 344.971C18.5052 532.568 160.847 703.458 348.869 725.916C536.89 748.373 700.477 614.023 713.534 426.426C726.591 238.828 584.249 67.9383 396.227 45.481Z" fill="#1B4A94"/>
<path d="M357.306 604.688C236.283 590.233 144.66 480.233 153.064 359.483C161.468 238.733 266.767 152.254 387.79 166.709C508.813 181.164 600.437 291.157 592.032 411.907C583.628 532.657 478.33 619.136 357.307 604.681L357.306 604.688ZM387.679 168.303C267.532 153.953 162.999 239.797 154.655 359.673C146.312 479.549 237.27 588.75 357.417 603.1C477.563 617.45 582.097 531.599 590.441 411.724C598.784 291.848 507.825 182.654 387.679 168.303Z" fill="#1B4A94"/>
</svg>
