<svg width="1110" height="1150" viewBox="0 0 1110 1150" fill="none" xmlns="http://www.w3.org/2000/svg">
<path d="M169.218 927.221C183.765 928.958 196.376 918.601 197.386 904.088C198.396 889.574 187.423 876.4 172.877 874.662C158.33 872.925 145.719 883.282 144.709 897.796C143.699 912.309 154.672 925.483 169.218 927.221Z" fill="#1B4A94"/>
<path d="M937.127 275.407C951.674 277.145 964.285 266.788 965.295 252.274C966.305 237.76 955.332 224.586 940.785 222.849C926.239 221.112 913.628 231.469 912.618 245.982C911.608 260.496 922.581 273.67 937.127 275.407Z" fill="#1B4A94"/>
<path d="M519.284 1088.21C235.689 1054.34 20.9931 796.581 40.6871 513.625C60.381 230.668 307.121 28.0277 590.716 61.9006C874.312 95.7734 1089.01 353.528 1069.31 636.485C1049.62 919.441 802.88 1122.08 519.284 1088.21ZM590.276 68.2248C310.176 34.7695 66.4768 234.913 47.0256 514.382C27.5744 793.851 239.625 1048.43 519.725 1081.88C799.824 1115.34 1043.52 915.196 1062.97 635.728C1082.43 356.259 870.376 101.68 590.276 68.2248Z" fill="#1B4A94"/>
<path d="M532.294 901.289C352.003 879.755 215.51 715.886 228.03 536.001C240.55 356.117 397.415 227.287 577.706 248.821C757.997 270.355 894.492 434.214 881.972 614.098C869.452 793.983 712.586 922.813 532.295 901.279L532.294 901.289ZM577.541 251.196C398.556 229.818 242.83 357.703 230.4 536.284C217.971 714.866 353.474 877.545 532.459 898.923C711.444 920.301 867.171 792.407 879.6 613.825C892.03 435.244 756.526 272.575 577.541 251.196Z" fill="#1B4A94"/>
</svg>
