<svg width="764" height="799" viewBox="0 0 764 799" fill="none" xmlns="http://www.w3.org/2000/svg">
<path d="M96.3605 259.833C98.6313 268.454 107.313 273.273 115.752 270.598C124.191 267.923 129.191 258.767 126.921 250.146C124.65 241.526 115.968 236.707 107.529 239.382C99.09 242.057 94.0897 251.213 96.3605 259.833Z" fill="#1B4A94"/>
<path d="M636.99 548.573C639.261 557.193 647.943 562.013 656.382 559.338C664.821 556.663 669.821 547.506 667.55 538.886C665.279 530.266 656.597 525.446 648.159 528.121C639.72 530.796 634.719 539.953 636.99 548.573Z" fill="#1B4A94"/>
<path d="M83.5681 493.943C39.2968 325.884 137.13 146.732 301.656 94.5798C466.182 42.4279 636.048 136.724 680.319 304.784C724.591 472.843 626.758 651.995 462.232 704.147C297.706 756.299 127.839 662.003 83.5681 493.943ZM676.642 305.949C632.917 139.961 465.143 46.827 302.645 98.336C140.147 149.845 43.5198 326.79 87.2454 492.778C130.971 658.766 298.744 751.9 461.242 700.391C623.74 648.882 720.368 471.937 676.642 305.949Z" fill="#1B4A94"/>
<path d="M192.254 459.492C164.109 352.651 226.307 238.754 330.901 205.6C435.496 172.445 543.489 232.394 571.634 339.235C599.778 446.076 537.587 559.971 432.992 593.125C328.397 626.28 220.404 566.331 192.26 459.49L192.254 459.492ZM570.253 339.673C542.312 233.606 435.108 174.09 331.271 207.004C227.434 239.919 165.688 352.989 193.629 459.056C221.57 565.123 328.779 624.637 432.616 591.722C536.453 558.808 598.193 445.74 570.253 339.673Z" fill="#1B4A94"/>
</svg>
