<svg width="140" height="175" viewBox="0 0 140 175" fill="none" xmlns="http://www.w3.org/2000/svg">
<path d="M126.341 174.626C133.887 174.626 140.005 168.491 140.005 160.924C140.005 153.357 133.887 147.223 126.341 147.223C118.795 147.223 112.677 153.357 112.677 160.924C112.677 168.491 118.795 174.626 126.341 174.626Z" fill="white"/>
<path d="M26.9172 107.642C30.5401 107.642 33.477 104.697 33.477 101.064C33.477 97.4313 30.5401 94.4863 26.9172 94.4863C23.2943 94.4863 20.3574 97.4313 20.3574 101.064C20.3574 104.697 23.2943 107.642 26.9172 107.642Z" fill="white"/>
<path d="M49.9243 80.1578C62.6308 80.1578 72.9314 69.829 72.9314 57.0877C72.9314 44.3464 62.6308 34.0176 49.9243 34.0176C37.2178 34.0176 26.9172 44.3464 26.9172 57.0877C26.9172 69.829 37.2178 80.1578 49.9243 80.1578Z" fill="white"/>
<path d="M132.332 167.273H3.8856C2.54881 167.273 1.32183 166.645 0.605693 165.592C-0.0436048 164.64 -0.182058 163.481 0.233302 162.413L0.266721 162.337L54.125 44.5352C54.4544 43.8123 55.3042 43.4963 56.0252 43.8267C56.7461 44.157 57.0612 45.0091 56.7317 45.732L2.89256 163.491C2.86391 163.577 2.82094 163.754 2.97372 163.974C3.11217 164.18 3.42727 164.4 3.89037 164.4H132.332C132.79 164.4 133.105 164.18 133.249 163.974C133.397 163.754 133.358 163.577 133.33 163.491L79.6004 45.9522C79.5335 45.8086 79.4715 45.6602 79.4142 45.507C78.044 41.9117 77.3135 38.1681 77.2467 34.3669L76.8122 9.39147C76.7549 6.14088 73.6612 3.49349 69.9087 3.49349H60.7373C59.9448 3.49349 59.3051 2.85199 59.3051 2.05729C59.3051 1.26259 59.9448 0.621094 60.7373 0.621094H69.9087C75.2081 0.621094 79.5908 4.53234 79.6768 9.33881L80.1112 34.3143C80.1733 37.7755 80.8369 41.1936 82.0878 44.4777C82.1212 44.5687 82.1594 44.6597 82.2023 44.7506L135.97 162.375L135.984 162.413C136.4 163.481 136.261 164.64 135.612 165.592C134.896 166.645 133.669 167.273 132.332 167.273Z" fill="white"/>
<path d="M120.349 157.981H15.8744C14.9529 157.981 14.1079 157.55 13.6161 156.832C13.1817 156.195 13.091 155.419 13.3679 154.711C13.5016 154.366 13.8883 154.194 14.232 154.333C14.5758 154.467 14.7429 154.854 14.6092 155.199C14.4516 155.601 14.6092 155.922 14.719 156.08C14.9577 156.434 15.3922 156.645 15.8744 156.645H120.349C120.831 156.645 121.261 156.434 121.505 156.08C121.61 155.922 121.767 155.601 121.614 155.199L77.9109 59.5916C77.7581 59.2564 77.9061 58.8591 78.2403 58.7059C78.5745 58.5527 78.9708 58.7011 79.1236 59.0362L122.841 154.677C123.133 155.424 123.042 156.2 122.607 156.836C122.116 157.555 121.275 157.985 120.349 157.985V157.981Z" fill="white"/>
<path d="M93.3747 115.651H68.1953C67.4028 115.651 66.7631 115.009 66.7631 114.215C66.7631 113.42 67.4028 112.778 68.1953 112.778H93.3747C94.1672 112.778 94.807 113.42 94.807 114.215C94.807 115.009 94.1672 115.651 93.3747 115.651Z" fill="white"/>
<path d="M85.5306 100.442H60.3512C59.5587 100.442 58.919 99.8002 58.919 99.0055C58.919 98.2108 59.5587 97.5693 60.3512 97.5693H85.5306C86.3231 97.5693 86.9629 98.2108 86.9629 99.0055C86.9629 99.8002 86.3231 100.442 85.5306 100.442Z" fill="white"/>
<path d="M100.145 130.865H74.9652C74.1727 130.865 73.533 130.224 73.533 129.429C73.533 128.634 74.1727 127.993 74.9652 127.993H100.145C100.937 127.993 101.577 128.634 101.577 129.429C101.577 130.224 100.937 130.865 100.145 130.865Z" fill="white"/>
</svg>
