<svg width="203" height="200" viewBox="0 0 203 200" fill="none" xmlns="http://www.w3.org/2000/svg">
<path d="M0 177.112V153.723H2.6723V174.759H14.1446V177.112H0Z" fill="white"/>
<path d="M14.7869 177.112L24.025 153.723H27.6131L36.8849 177.112H34.0084L31.572 170.94H19.9313L17.5286 177.112H14.7869ZM20.8452 168.623H30.6581L27.6131 160.815C27.5457 160.634 27.4446 160.362 27.3079 159.996C27.1731 159.633 27.0204 159.217 26.8499 158.752C26.6814 158.287 26.5109 157.815 26.3424 157.338C26.1739 156.861 26.0094 156.429 25.8508 156.042H25.6149C25.4801 156.473 25.3036 156.984 25.0895 157.576C24.8754 158.167 24.6613 158.752 24.4472 159.331C24.2331 159.911 24.0468 160.406 23.8882 160.813L20.8432 168.621L20.8452 168.623Z" fill="white"/>
<path d="M40.2352 177.112V153.723H51.9097C53.2637 153.723 54.4195 153.95 55.379 154.404C56.3384 154.859 57.0759 155.506 57.5953 156.347C58.1147 157.188 58.3744 158.189 58.3744 159.347C58.3744 160.234 58.2217 161.051 57.9164 161.802C57.6131 162.553 57.183 163.182 56.6318 163.696C56.0787 164.207 55.4305 164.588 54.6851 164.838V164.974C55.4741 165.156 56.1977 165.473 56.8499 165.929C57.5041 166.384 58.0294 167.003 58.4239 167.786C58.8185 168.571 59.0167 169.564 59.0167 170.77C59.0167 172.316 58.7055 173.555 58.0869 174.487C57.4664 175.42 56.6259 176.089 55.5653 176.499C54.5047 176.908 53.2875 177.112 51.9117 177.112H40.2372H40.2352ZM42.9075 163.951H51.5033C52.3161 163.951 53.0318 163.787 53.6523 163.458C54.2728 163.128 54.7624 162.657 55.1252 162.042C55.486 161.429 55.6664 160.723 55.6664 159.929C55.6664 158.61 55.3116 157.634 54.5999 156.996C53.8882 156.359 52.9465 156.042 51.7749 156.042H42.9095V163.951H42.9075ZM42.9075 174.793H52.0782C53.341 174.793 54.362 174.469 55.1391 173.822C55.9182 173.175 56.3067 172.079 56.3067 170.533C56.3067 169.556 56.1362 168.749 55.7992 168.112C55.4622 167.477 54.9646 167.009 54.3104 166.714C53.6562 166.418 52.8315 166.27 51.8403 166.27H42.9055V174.793H42.9075Z" fill="white"/>
<path d="M71.9064 177.521C70.6218 177.521 69.3907 177.379 68.2191 177.096C67.0455 176.812 66.0067 176.369 65.1047 175.766C64.2027 175.164 63.491 174.413 62.9716 173.514C62.4522 172.618 62.1945 171.555 62.1945 170.327C62.1945 170.191 62.1985 170.053 62.2104 169.917C62.2223 169.781 62.2282 169.677 62.2282 169.61H66.6609C66.6609 169.656 66.655 169.741 66.6431 169.865C66.6312 169.991 66.6272 170.099 66.6272 170.189C66.6272 170.94 66.8413 171.581 67.2695 172.116C67.6977 172.652 68.3182 173.059 69.131 173.343C69.9438 173.626 70.9013 173.768 72.0075 173.768C72.7509 173.768 73.4111 173.722 73.9879 173.632C74.5628 173.542 75.0585 173.411 75.4767 173.241C75.8931 173.071 76.238 172.865 76.5096 172.628C76.7792 172.388 76.9774 172.122 77.1023 171.827C77.2252 171.531 77.2887 171.213 77.2887 170.872C77.2887 170.213 77.0845 169.668 76.6801 169.236C76.2737 168.805 75.7265 168.441 75.0386 168.146C74.3507 167.85 73.5716 167.582 72.7033 167.345C71.835 167.105 70.9449 166.861 70.031 166.612C69.1171 166.362 68.225 166.06 67.3587 165.709C66.4904 165.357 65.7113 164.93 65.0234 164.43C64.3355 163.931 63.7884 163.3 63.382 162.537C62.9756 161.776 62.7734 160.861 62.7734 159.792C62.7734 158.724 63.0033 157.747 63.4672 156.928C63.9291 156.109 64.5833 155.434 65.4298 154.899C66.2763 154.366 67.2636 153.968 68.3916 153.706C69.5196 153.445 70.7487 153.315 72.0809 153.315C73.3219 153.315 74.4875 153.447 75.5838 153.706C76.6781 153.968 77.6415 154.378 78.4761 154.933C79.3107 155.49 79.9649 156.193 80.4387 157.046C80.9125 157.899 81.1504 158.916 81.1504 160.098V160.508H76.7851V160.166C76.7851 159.507 76.5869 158.95 76.1924 158.494C75.7979 158.041 75.2448 157.687 74.5331 157.438C73.8214 157.188 72.9928 157.062 72.0452 157.062C71.0302 157.062 70.1619 157.158 69.4403 157.352C68.7187 157.545 68.1656 157.829 67.781 158.205C67.3964 158.58 67.2061 159.039 67.2061 159.585C67.2061 160.13 67.4103 160.631 67.8147 161.017C68.2211 161.404 68.7682 161.732 69.4561 162.006C70.144 162.277 70.9231 162.529 71.7914 162.755C72.6597 162.982 73.5498 163.226 74.4637 163.488C75.3776 163.749 76.2677 164.051 77.136 164.39C78.0043 164.732 78.7814 165.157 79.4713 165.669C80.1592 166.18 80.7064 166.811 81.1128 167.56C81.5192 168.311 81.7214 169.208 81.7214 170.255C81.7214 172.004 81.2991 173.415 80.4526 174.483C79.6061 175.552 78.4444 176.325 76.9675 176.802C75.4906 177.28 73.8036 177.519 71.9084 177.519L71.9064 177.521Z" fill="white"/>
<path d="M91.1617 177.112V167.6L82.2289 153.725H87.3039L93.4276 163.612H93.5981L99.6544 153.725H104.46L95.5607 167.6V177.112H91.1617Z" fill="white"/>
<path d="M107.37 177.112V153.723H111.567L121.481 167.531C121.594 167.666 121.729 167.854 121.887 168.094C122.044 168.334 122.193 168.565 122.327 168.793C122.462 169.021 122.551 169.202 122.597 169.338H122.765V153.723H126.996V177.112H122.835L112.887 163.2C112.707 162.929 112.498 162.593 112.261 162.196C112.023 161.798 111.86 161.52 111.769 161.361H111.6V177.112H107.37Z" fill="white"/>
<path d="M142.36 177.521C139.991 177.521 137.967 177.102 136.286 176.259C134.604 175.418 133.32 174.106 132.428 172.32C131.538 170.536 131.092 168.235 131.092 165.415C131.092 161.301 132.085 158.255 134.069 156.277C136.056 154.3 138.817 153.311 142.36 153.311C144.277 153.311 146.009 153.641 147.554 154.3C149.098 154.959 150.329 155.954 151.243 157.284C152.157 158.614 152.613 160.302 152.613 162.347H148.113C148.113 161.211 147.871 160.25 147.385 159.467C146.899 158.682 146.229 158.087 145.371 157.677C144.513 157.268 143.531 157.064 142.427 157.064C140.893 157.064 139.618 157.366 138.603 157.967C137.588 158.57 136.837 159.461 136.353 160.643C135.867 161.826 135.625 163.292 135.625 165.042V165.791C135.625 167.564 135.867 169.042 136.353 170.223C136.837 171.405 137.582 172.292 138.585 172.883C139.59 173.475 140.869 173.77 142.427 173.77C143.599 173.77 144.626 173.572 145.506 173.173C146.386 172.776 147.068 172.184 147.554 171.399C148.039 170.614 148.281 169.656 148.281 168.519H152.613C152.613 170.564 152.161 172.252 151.259 173.582C150.357 174.913 149.132 175.901 147.587 176.549C146.041 177.196 144.299 177.519 142.36 177.519V177.521Z" fill="white"/>
<path d="M156.538 177.112V153.723H168.754C170.468 153.723 171.89 154.018 173.018 154.609C174.146 155.201 174.992 156.042 175.555 157.132C176.118 158.223 176.402 159.507 176.402 160.985C176.402 162.463 176.063 163.855 175.387 165.026C174.709 166.196 173.718 167.077 172.409 167.668L177.215 177.112H172.409L168.145 168.417H160.937V177.112H156.538ZM160.937 164.7H168.415C169.543 164.7 170.411 164.371 171.022 163.712C171.63 163.052 171.935 162.144 171.935 160.983C171.935 160.234 171.801 159.603 171.529 159.092C171.259 158.58 170.863 158.189 170.344 157.915C169.824 157.642 169.182 157.506 168.415 157.506H160.937V164.7Z" fill="white"/>
<path d="M191.292 177.521C188.877 177.521 186.79 177.084 185.031 176.209C183.271 175.334 181.923 173.998 180.987 172.202C180.051 170.407 179.584 168.146 179.584 165.417C179.584 162.689 180.051 160.4 180.987 158.616C181.923 156.832 183.271 155.502 185.031 154.627C186.79 153.752 188.877 153.315 191.292 153.315C193.706 153.315 195.82 153.752 197.568 154.627C199.317 155.502 200.659 156.832 201.594 158.616C202.53 160.402 202.998 162.669 202.998 165.417C202.998 168.165 202.53 170.407 201.594 172.202C200.659 173.998 199.315 175.334 197.568 176.209C195.82 177.084 193.728 177.521 191.292 177.521ZM191.292 173.77C192.463 173.77 193.496 173.6 194.388 173.259C195.278 172.917 196.03 172.412 196.638 171.741C197.247 171.07 197.709 170.241 198.026 169.252C198.341 168.263 198.5 167.121 198.5 165.827V165.076C198.5 163.757 198.341 162.599 198.026 161.598C197.711 160.597 197.249 159.762 196.638 159.091C196.03 158.42 195.278 157.915 194.388 157.573C193.496 157.232 192.463 157.062 191.292 157.062C190.12 157.062 189.085 157.232 188.195 157.573C187.303 157.915 186.554 158.42 185.943 159.091C185.335 159.762 184.877 160.597 184.573 161.598C184.268 162.599 184.115 163.757 184.115 165.076V165.827C184.115 167.123 184.268 168.263 184.573 169.252C184.877 170.241 185.335 171.072 185.943 171.741C186.552 172.412 187.303 172.917 188.195 173.259C189.085 173.6 190.118 173.77 191.292 173.77Z" fill="white"/>
<path d="M109.511 43.1675C111.388 55.1378 118.832 60.1333 133.597 66.0515C145.052 70.6395 149.756 75.7169 150.656 85.2005H140.583C137.326 78.0319 128.808 74.9199 120.511 71.8879C106.462 66.7406 100.313 58.1239 100.085 43.1655H109.509L109.511 43.1675Z" fill="white"/>
<path d="M100.083 76.1887V85.2009H60.2399V43.1699H69.5533V76.1887H100.083Z" fill="white"/>
<path d="M56.7409 116.967C58.5901 116.967 60.0892 115.456 60.0892 113.593C60.0892 111.73 58.5901 110.22 56.7409 110.22C54.8917 110.22 53.3926 111.73 53.3926 113.593C53.3926 115.456 54.8917 116.967 56.7409 116.967Z" fill="white"/>
<path d="M146.259 21.5157C148.108 21.5157 149.607 20.0053 149.607 18.1421C149.607 16.279 148.108 14.7686 146.259 14.7686C144.41 14.7686 142.911 16.279 142.911 18.1421C142.911 20.0053 144.41 21.5157 146.259 21.5157Z" fill="white"/>
<path d="M101.5 131.741C65.4516 131.741 36.1237 102.192 36.1237 65.8717C36.1237 29.5513 65.4516 0 101.5 0C137.548 0 166.876 29.5493 166.876 65.8697C166.876 102.19 137.548 131.739 101.5 131.739V131.741ZM101.5 0.812935C65.8957 0.812935 36.9286 29.9987 36.9286 65.8717C36.9286 101.745 65.8957 130.93 101.5 130.93C137.104 130.93 166.071 101.745 166.071 65.8717C166.071 29.9987 137.104 0.812935 101.5 0.812935Z" fill="white"/>
<path d="M101.5 107.747C78.5812 107.747 59.9365 88.9615 59.9365 65.8698C59.9365 42.778 78.5812 23.9946 101.5 23.9946C124.419 23.9946 143.063 42.78 143.063 65.8698C143.063 88.9595 124.419 107.747 101.5 107.747ZM101.5 24.2982C78.7477 24.2982 60.2398 42.9458 60.2398 65.8698C60.2398 88.7937 78.7497 107.443 101.5 107.443C124.25 107.443 142.76 88.7937 142.76 65.8698C142.76 42.9458 124.25 24.2982 101.5 24.2982Z" fill="white"/>
<path d="M39.5156 199.798V187.95H43.1435C44.0514 187.95 44.7928 188.102 45.3697 188.407C45.9466 188.713 46.3689 189.12 46.6385 189.633C46.9081 190.147 47.0409 190.73 47.0409 191.385C47.0409 192.04 46.9001 192.596 46.6206 193.121C46.3411 193.646 45.9089 194.064 45.3261 194.373C44.7433 194.683 43.988 194.839 43.0582 194.839H40.6892V199.798H39.5136H39.5156ZM40.6912 193.874H43.0602C44.0118 193.874 44.7116 193.642 45.1596 193.181C45.6076 192.717 45.8316 192.12 45.8316 191.387C45.8316 190.654 45.6136 190.037 45.1774 189.602C44.7413 189.168 44.0296 188.95 43.0443 188.95H40.6932V193.876L40.6912 193.874ZM45.7642 199.798L43.1276 194.467H44.4717L47.1757 199.798H45.7642Z" fill="white"/>
<path d="M49.3762 199.798V187.95H56.5149V188.932H50.5518V193.351H56.0114V194.331H50.5518V198.817H56.5149V199.8H49.3762V199.798Z" fill="white"/>
<path d="M62.478 200C61.6157 200 60.8683 199.842 60.2359 199.527C59.6035 199.211 59.1198 198.768 58.7828 198.198C58.4458 197.629 58.2792 196.978 58.2792 196.243H59.5064C59.5064 196.74 59.6174 197.196 59.8414 197.613C60.0654 198.031 60.3965 198.366 60.8326 198.62C61.2687 198.874 61.8179 199.001 62.478 199.001C63.0608 199.001 63.5505 198.904 63.947 198.706C64.3435 198.508 64.6488 198.246 64.8629 197.919C65.075 197.591 65.182 197.22 65.182 196.802C65.182 196.305 65.0789 195.905 64.8708 195.6C64.6626 195.294 64.3811 195.047 64.0223 194.855C63.6635 194.663 63.2571 194.497 62.8051 194.355C62.3511 194.214 61.8734 194.06 61.3678 193.89C60.4599 193.574 59.7938 193.185 59.3696 192.722C58.9433 192.258 58.7253 191.667 58.7154 190.944C58.7154 190.323 58.8581 189.773 59.1436 189.294C59.429 188.815 59.8453 188.437 60.3945 188.16C60.9436 187.884 61.5919 187.744 62.3432 187.744C63.0945 187.744 63.7071 187.882 64.2503 188.16C64.7935 188.435 65.2157 188.819 65.519 189.31C65.8224 189.801 65.973 190.363 65.973 190.994H64.7637C64.7637 190.632 64.6706 190.281 64.4862 189.935C64.3018 189.592 64.0263 189.31 63.6635 189.088C63.2987 188.869 62.8368 188.759 62.2778 188.759C61.8179 188.759 61.4134 188.841 61.0606 189.004C60.7077 189.168 60.4302 189.406 60.2299 189.716C60.0277 190.025 59.9266 190.391 59.9266 190.808C59.9266 191.226 60.0158 191.547 60.1962 191.807C60.3747 192.066 60.6264 192.28 60.9515 192.45C61.2767 192.62 61.6573 192.774 62.0934 192.915C62.5295 193.057 63.0172 193.217 63.5545 193.399C64.1036 193.59 64.5893 193.822 65.0155 194.092C65.4417 194.363 65.7768 194.709 66.0226 195.132C66.2684 195.556 66.3913 196.089 66.3913 196.732C66.3913 197.286 66.2486 197.809 65.9631 198.306C65.6776 198.804 65.2435 199.209 64.6607 199.525C64.0778 199.84 63.3503 199.998 62.476 199.998L62.478 200Z" fill="white"/>
<path d="M72.624 200C71.8291 200 71.1095 199.842 70.4652 199.527C69.8209 199.211 69.3094 198.718 68.9288 198.045C68.5482 197.373 68.3579 196.519 68.3579 195.48V187.948H69.5335V195.496C69.5335 196.297 69.6643 196.954 69.928 197.467C70.1916 197.981 70.5584 198.356 71.0282 198.592C71.498 198.83 72.0353 198.947 72.6399 198.947C73.2446 198.947 73.7937 198.83 74.2516 198.592C74.7115 198.354 75.0684 197.981 75.3261 197.467C75.5838 196.954 75.7127 196.297 75.7127 195.496V187.948H76.8882V195.48C76.8882 196.519 76.6979 197.373 76.3173 198.045C75.9367 198.716 75.4232 199.209 74.7809 199.527C74.1366 199.842 73.417 200 72.6221 200H72.624Z" fill="white"/>
<path d="M79.3762 199.798V187.95H80.5517V198.833H86.1124V199.798H79.3762Z" fill="white"/>
<path d="M89.0028 199.798V188.932H85.4761V187.95H93.7071V188.932H90.1804V199.798H89.0048H89.0028Z" fill="white"/>
<path d="M98.8634 200C98.001 200 97.2537 199.842 96.6213 199.527C95.9889 199.211 95.5052 198.768 95.1681 198.198C94.8311 197.629 94.6646 196.978 94.6646 196.243H95.8917C95.8917 196.74 96.0027 197.196 96.2268 197.613C96.4508 198.031 96.7818 198.366 97.218 198.62C97.6541 198.874 98.2032 199.001 98.8634 199.001C99.4462 199.001 99.9359 198.904 100.332 198.706C100.729 198.508 101.034 198.246 101.248 197.919C101.46 197.591 101.567 197.22 101.567 196.802C101.567 196.305 101.464 195.905 101.256 195.6C101.048 195.294 100.767 195.047 100.408 194.855C100.049 194.663 99.6425 194.497 99.1905 194.355C98.7365 194.214 98.2587 194.06 97.7532 193.89C96.8453 193.574 96.1792 193.185 95.7549 192.722C95.3287 192.258 95.1107 191.667 95.1007 190.944C95.1007 190.323 95.2435 189.773 95.529 189.294C95.8144 188.815 96.2307 188.437 96.7799 188.16C97.329 187.884 97.9772 187.744 98.7286 187.744C99.4799 187.744 100.092 187.882 100.636 188.16C101.179 188.435 101.601 188.819 101.904 189.31C102.208 189.801 102.358 190.363 102.358 190.994H101.149C101.149 190.632 101.056 190.281 100.872 189.935C100.687 189.592 100.412 189.31 100.049 189.088C99.6841 188.869 99.2222 188.759 98.6632 188.759C98.2032 188.759 97.7988 188.841 97.4459 189.004C97.0931 189.168 96.8155 189.406 96.6153 189.716C96.4131 190.025 96.312 190.391 96.312 190.808C96.312 191.226 96.4012 191.547 96.5816 191.807C96.76 192.066 97.0118 192.28 97.3369 192.45C97.662 192.62 98.0427 192.774 98.4788 192.915C98.9149 193.057 99.4026 193.217 99.9398 193.399C100.489 193.59 100.975 193.822 101.401 194.092C101.827 194.363 102.162 194.709 102.408 195.132C102.654 195.556 102.777 196.089 102.777 196.732C102.777 197.286 102.634 197.809 102.348 198.306C102.063 198.804 101.629 199.209 101.046 199.525C100.463 199.84 99.7356 199.998 98.8614 199.998L98.8634 200Z" fill="white"/>
<path d="M114.536 200C113.404 200 112.425 199.744 111.596 199.229C110.768 198.716 110.129 197.999 109.681 197.08C109.233 196.161 109.009 195.091 109.009 193.872C109.009 192.654 109.233 191.585 109.681 190.664C110.129 189.746 110.77 189.028 111.604 188.515C112.439 188.002 113.416 187.744 114.536 187.744C115.859 187.744 116.931 188.058 117.754 188.683C118.577 189.308 119.106 190.193 119.342 191.331H118.049C117.871 190.564 117.488 189.947 116.907 189.478C116.325 189.01 115.536 188.775 114.538 188.775C113.676 188.775 112.921 188.979 112.271 189.384C111.62 189.789 111.117 190.375 110.758 191.136C110.399 191.897 110.221 192.81 110.221 193.87C110.221 194.931 110.399 195.842 110.758 196.603C111.117 197.364 111.62 197.949 112.271 198.354C112.921 198.76 113.676 198.963 114.538 198.963C115.536 198.963 116.325 198.732 116.907 198.27C117.49 197.807 117.871 197.198 118.049 196.443H119.342C119.096 197.559 118.567 198.432 117.754 199.057C116.941 199.683 115.869 199.996 114.536 199.996V200Z" fill="white"/>
<path d="M126.647 200C125.527 200 124.542 199.744 123.691 199.229C122.841 198.716 122.177 197.999 121.701 197.08C121.225 196.161 120.987 195.09 120.987 193.872C120.987 192.654 121.225 191.601 121.701 190.682C122.177 189.763 122.841 189.044 123.691 188.525C124.542 188.006 125.527 187.746 126.647 187.746C127.767 187.746 128.802 188.006 129.654 188.525C130.505 189.044 131.167 189.763 131.637 190.682C132.107 191.603 132.343 192.666 132.343 193.872C132.343 195.078 132.107 196.159 131.637 197.08C131.167 198.001 130.505 198.716 129.654 199.229C128.804 199.742 127.801 200 126.647 200ZM126.665 198.967C127.549 198.967 128.328 198.764 129 198.358C129.672 197.953 130.196 197.367 130.57 196.606C130.945 195.845 131.133 194.935 131.133 193.874C131.133 192.813 130.945 191.905 130.57 191.15C130.196 190.395 129.672 189.813 129 189.406C128.328 189 127.549 188.797 126.665 188.797C125.781 188.797 125.002 189 124.33 189.406C123.658 189.811 123.134 190.393 122.759 191.15C122.385 191.907 122.196 192.813 122.196 193.874C122.196 194.935 122.385 195.845 122.759 196.606C123.134 197.367 123.658 197.953 124.33 198.358C125.002 198.764 125.781 198.967 126.665 198.967Z" fill="white"/>
<path d="M138.607 200C137.812 200 137.092 199.842 136.448 199.527C135.804 199.211 135.292 198.718 134.912 198.045C134.531 197.373 134.341 196.519 134.341 195.48V187.948H135.516V195.496C135.516 196.297 135.647 196.954 135.911 197.467C136.175 197.981 136.541 198.356 137.011 198.592C137.481 198.83 138.018 198.947 138.623 198.947C139.227 198.947 139.777 198.83 140.235 198.592C140.694 198.354 141.051 197.981 141.309 197.467C141.567 196.954 141.696 196.297 141.696 195.496V187.948H142.871V195.48C142.871 196.519 142.681 197.373 142.3 198.045C141.92 198.716 141.406 199.209 140.764 199.527C140.12 199.842 139.4 200 138.605 200H138.607Z" fill="white"/>
<path d="M145.359 199.798V187.95H146.535L153.035 197.817V187.95H154.211V199.798H153.035L146.535 189.913V199.798H145.359Z" fill="white"/>
<path d="M159.571 199.798V188.932H156.044V187.95H164.275V188.932H160.749V199.798H159.573H159.571Z" fill="white"/>
</svg>
