<svg width="42" height="43" viewBox="0 0 42 43" fill="none" xmlns="http://www.w3.org/2000/svg">
<path d="M20.5091 10.9438C14.6886 10.9438 9.99374 15.653 9.99374 21.4913C9.99374 27.3295 14.6886 32.0387 20.5091 32.0387C26.3297 32.0387 31.0245 27.3295 31.0245 21.4913C31.0245 15.653 26.3297 10.9438 20.5091 10.9438ZM20.5091 28.3485C16.7478 28.3485 13.6728 25.2733 13.6728 21.4913C13.6728 17.7092 16.7386 14.634 20.5091 14.634C24.2797 14.634 27.3455 17.7092 27.3455 21.4913C27.3455 25.2733 24.2705 28.3485 20.5091 28.3485ZM33.9074 10.5124C33.9074 11.8801 32.8091 12.9725 31.4547 12.9725C30.0911 12.9725 29.002 11.8709 29.002 10.5124C29.002 9.15376 30.1002 8.0522 31.4547 8.0522C32.8091 8.0522 33.9074 9.15376 33.9074 10.5124ZM40.8719 13.0092C40.7163 9.71372 39.9658 6.79458 37.5589 4.3895C35.1612 1.98442 32.2509 1.23169 28.9654 1.06646C25.5792 0.873682 15.4299 0.873682 12.0437 1.06646C8.76741 1.22251 5.85714 1.97524 3.45022 4.38032C1.0433 6.7854 0.302006 9.70454 0.137274 13C-0.0549133 16.3965 -0.0549133 26.5768 0.137274 29.9733C0.292854 33.2688 1.0433 36.1879 3.45022 38.593C5.85714 40.9981 8.75826 41.7508 12.0437 41.9161C15.4299 42.1088 25.5792 42.1088 28.9654 41.9161C32.2509 41.76 35.1612 41.0073 37.5589 38.593C39.9567 36.1879 40.7071 33.2688 40.8719 29.9733C41.0641 26.5768 41.0641 16.4057 40.8719 13.0092ZM36.4973 33.6176C35.7835 35.4168 34.4016 36.803 32.5987 37.5282C29.8989 38.6022 23.4926 38.3543 20.5091 38.3543C17.5257 38.3543 11.1103 38.593 8.41964 37.5282C6.62589 36.8122 5.24397 35.426 4.52098 33.6176C3.45022 30.9096 3.69732 24.4838 3.69732 21.4913C3.69732 18.4987 3.45937 12.0637 4.52098 9.36489C5.23482 7.56567 6.61674 6.17954 8.41964 5.45434C11.1194 4.38032 17.5257 4.62817 20.5091 4.62817C23.4926 4.62817 29.908 4.3895 32.5987 5.45434C34.3924 6.17036 35.7743 7.55649 36.4973 9.36489C37.5681 12.0729 37.321 18.4987 37.321 21.4913C37.321 24.4838 37.5681 30.9188 36.4973 33.6176Z" fill="white"/>
</svg>
