<svg width="190" height="35" viewBox="0 0 190 35" fill="none" xmlns="http://www.w3.org/2000/svg">
<path d="M36.2144 8.35499C31.192 7.43567 25.5006 10.8605 23.774 15.981C21.5161 22.6925 25.1071 26.0221 30.1246 26.9414C35.1519 27.8655 40.8531 24.4407 42.5649 19.3154C44.8769 12.399 41.2368 9.27431 36.2144 8.35499ZM33.6024 23.3594C33.5147 23.6414 33.3663 23.9022 33.1671 24.1247C32.9678 24.3472 32.7222 24.5263 32.4464 24.6503C31.4773 25.0694 29.4949 24.7551 29.9376 22.9117L32.7464 12.018C32.8361 11.7362 32.9857 11.4758 33.1856 11.2534C33.3856 11.0311 33.6314 10.8518 33.9073 10.7271C34.8764 10.3127 36.8588 10.6271 36.421 12.4705L33.6024 23.3594ZM12.3912 17.3386L10.8368 23.3594C10.7483 23.641 10.5996 23.9014 10.4004 24.1238C10.2013 24.3462 9.95612 24.5255 9.6808 24.6503C8.70682 25.0694 6.72442 24.7551 7.17206 22.9117L9.84805 12.742C10.0743 11.3797 12.219 10.0269 16.4396 12.0989L17.7235 10.1365C12.1453 6.87836 3.09905 9.35528 0.796913 15.981C-1.38716 22.2781 1.20028 26.427 5.1208 26.4317H17.9104L20.2175 17.3386H12.2928M59.1816 8.35499C54.1592 7.43567 48.4679 10.8605 46.7412 15.981C44.4834 22.6925 48.0694 26.0221 53.0918 26.9462C58.1142 27.8655 63.8203 24.4407 65.5322 19.3154C67.8442 12.399 64.204 9.27431 59.1816 8.35499ZM56.5696 23.3594C56.4819 23.6414 56.3336 23.9022 56.1343 24.1247C55.9351 24.3472 55.6895 24.5263 55.4136 24.6503C54.4446 25.0694 52.4622 24.7551 52.9049 22.9117L55.7137 12.018C55.8033 11.7362 55.9529 11.4758 56.1529 11.2534C56.3528 11.0311 56.5987 10.8518 56.8746 10.7271C57.8436 10.3079 59.826 10.6223 59.3882 12.4657L56.5696 23.3594ZM77.8791 26.5603C82.4637 26.5603 86.6695 24.3597 88.3814 19.2344C90.6934 12.3133 87.0532 8.95993 82.0308 8.98851H71.5925L67.1457 26.5794L77.8791 26.5603ZM76.9199 24.5693L75.3113 24.555L78.7695 11.0272L80.3829 11.0082C81.3372 10.9843 82.4145 11.4654 82.0899 12.7992L79.3647 23.1641C79.2759 23.4364 79.1282 23.6873 78.9314 23.9001C78.7346 24.1128 78.4933 24.2825 78.2235 24.3978C77.8071 24.5464 77.3621 24.6049 76.9199 24.5693ZM176.153 21.2731C176.153 21.2731 177.599 21.2064 177.801 22.1257L178.77 26.5651H187.122L185.735 20.2061C191.382 17.4767 192.12 8.95993 183.669 8.99327H171.617L167.171 26.5794L174.893 26.5699M174.893 26.5699L178.789 11.0272L180.019 11.0082C180.973 10.9843 182.051 11.4654 181.731 12.7992L180.698 17.21C180.609 17.483 180.461 17.7345 180.263 17.9473C180.066 18.1602 179.823 18.3294 179.552 18.4437C179.198 18.5913 177.338 18.6247 176.871 18.6056M126.573 8.98375L121.31 15.2523L119.455 8.98375H110.842L113.833 19.082L111.89 26.5603H120.503L122.446 19.082L131.025 8.98375H126.573ZM132.594 8.98851H147.376L146.643 11.8131H139.86L138.758 16.2668H143.608L142.791 19.1725H137.995L136.81 23.7976H143.662L142.978 26.5746H128.152L132.594 8.98851ZM162.94 8.96946H155.822L144.759 26.5699H147.976L147.991 26.6461L149.816 23.7452L156.58 23.75L156.87 26.6413H164.627L162.94 8.96946ZM151.739 20.6967L151.725 20.7301V20.6967H151.739L155.68 14.4377L156.28 20.6967H151.739ZM88.0666 33.5195H88.0518C91.3968 33.229 95.8387 28.2037 98.8246 25.3457C101.811 22.4877 106.257 19.825 107.635 18.8962L108.318 19.9965C106.946 20.9206 102.504 23.5833 99.5133 26.4413C96.5274 29.2992 92.0805 34.3245 88.7405 34.6151L88.0666 33.5195ZM99.9855 8.17875C99.7199 7.50236 99.5477 6.4068 99.8134 4.48242L92.597 8.30736L94.3581 11.132L99.9855 8.17875ZM99.2575 13.1945L94.9189 12.4705C95.0959 13.1659 95.2238 14.1519 95.0271 15.3666C96.7783 14.4901 98.2786 13.7089 99.2575 13.1945ZM96.6012 11.4368L100.453 12.0799C100.423 11.1476 100.497 10.2149 100.674 9.29812L96.6012 11.4368ZM99.1542 23.3308C101.943 20.8491 105.667 18.6056 106.882 17.7863C105.829 16.1525 105.997 16.1954 105.288 15.1522C104.924 15.6047 104.728 16.1573 103.842 16.8337C103.183 17.3386 103.262 17.5386 102.499 16.767C101.215 15.4666 100.758 13.8852 100.758 13.8852C100.758 13.8852 97.3341 15.5095 95.4796 16.5336L99.1542 23.3308ZM94.3532 17.2481L94.3433 17.2576C93.5912 18.6343 92.9243 20.0531 92.3462 21.5065C90.8901 25.0504 90.9049 26.3889 88.6077 28.9849C88.1649 29.485 87.6583 30.2186 87.1221 30.7425C86.5761 31.276 86.153 32.6336 87.737 32.3478C90.9147 31.7809 95.3271 27.0224 98.1802 24.2454L94.3532 17.2481Z" fill="white"/>
<path d="M127.439 0.623891C121.753 1.36697 121.767 1.35268 110.065 0.919216C97.7031 0.871583 101.451 8.77867 102.14 9.00731C101.87 10.7888 101.692 12.4607 102.234 13.7087C102.204 13.6372 103.281 16.2618 104.049 14.8043C104.55 13.8468 104.241 14.5423 104.747 13.2848C105.126 12.3511 105.023 11.4652 105.884 12.3464C106.764 13.2371 107.01 12.5131 107.049 11.6557C107.084 11.0555 106.877 9.70751 107.846 10.7078C108.594 11.4842 109.179 10.1219 109.135 8.6453C109.076 6.76856 109.588 8.1642 111.393 7.86888C114.989 7.28299 112.893 6.84001 112.987 6.88287C112.254 6.55897 112.269 6.35415 113.444 6.36367C113.69 6.36367 113.961 6.35415 114.689 6.23506C115.018 6.13504 116.484 5.48723 115.387 5.29193C114.753 5.17761 114.905 5.1919 114.354 4.91563C113.739 4.36785 114.192 4.27258 115.732 4.4393C123.651 5.59678 126.898 3.30087 127.375 1.35268C127.439 1.08593 127.631 0.600075 127.439 0.623891ZM103.803 8.47382C103.537 7.41637 104.009 7.94509 103.188 7.63548C102.13 7.2306 102.342 6.76379 102.75 6.87811C103.099 6.97338 103.503 7.04483 104.014 7.01625C104.309 7.00672 104.496 7.10199 104.487 7.35921C104.439 7.83382 104.479 8.31285 104.605 8.77391C104.747 9.18831 103.921 8.95968 103.803 8.47382ZM109.794 3.37232C109.233 3.73909 108.992 3.32469 108.51 3.92963C108.146 4.3869 107.841 4.50122 107.271 4.44406C106.617 4.3869 106.759 4.66317 106.336 4.89181C105.933 5.12045 105.279 5.00613 104.752 4.868C104.408 4.77749 103.857 4.54886 104.777 4.41548C105.441 4.32022 105.569 4.35832 105.854 3.88199C106.09 3.4914 106.238 3.17702 106.838 3.22466C107.428 3.27229 107.625 3.23895 107.979 2.89599C108.368 2.48634 108.889 2.62448 108.889 2.62448C108.889 2.62448 109.248 2.74356 109.499 2.70546C110.237 2.61019 110.621 2.84836 109.794 3.37232Z" fill="white"/>
</svg>
