<svg width="92" height="101" viewBox="0 0 92 101" fill="none" xmlns="http://www.w3.org/2000/svg">
<path d="M13.8975 17.1806C13.2144 17.5137 11.8349 17.9239 9.78886 17.9239C4.12316 17.9239 0.871765 14.031 0.871765 9.0642C0.871765 3.15136 5.01478 0.0224609 10.1652 0.0224609C12.1619 0.0224609 13.2169 0.404202 13.8964 0.76492L13.267 4.30101C12.5105 3.96629 11.7075 3.66145 10.3208 3.66145C7.86799 3.66145 5.26621 5.11871 5.26621 8.99892C5.26621 12.47 7.34076 14.306 10.3413 14.306C11.5297 14.306 12.3364 14.073 13.2673 13.6462L13.8975 17.1806Z" fill="white"/>
<path d="M23.3053 4.40805C21.7791 4.40805 20.3021 5.09933 19.55 6.2097H19.5037V0.0849609L15.6645 1.41276V17.392H19.5037V9.92781C19.5037 8.85008 20.2051 7.69075 21.5503 7.69075C22.9894 7.69075 23.5438 8.82242 23.5438 10.4686V17.3922H27.3863V9.93915C27.3863 6.13446 25.7529 4.40805 23.3053 4.40805Z" fill="white"/>
<path d="M33.178 12.3512C33.3193 13.9697 34.6631 14.8297 36.7396 14.8483C37.9909 14.8579 39.4457 14.4945 40.4149 13.9241L40.9942 16.9091C39.5354 17.6411 37.8691 17.9246 36.1727 17.9246C31.6027 17.9246 29.1533 15.1788 29.1533 10.9722C29.1533 6.90306 31.7872 4.27734 35.7341 4.27734C39.8018 4.27734 41.6252 7.26931 41.6252 11.0181C41.6252 11.4131 41.5765 12.0566 41.5327 12.3512H33.178ZM37.7907 9.62173C37.7907 8.68176 37.3316 7.03805 35.5541 7.03805C33.9957 7.03805 33.2608 8.3783 33.1517 9.62173H37.7907Z" fill="white"/>
<path d="M46.1381 17.3914L41.896 4.81055H46.1318L48.4364 13.7098H48.514L50.8189 4.81055H55.0564L50.8145 17.3914H46.1381Z" fill="white"/>
<path d="M56.1449 8.94809C56.1449 7.0972 56.0867 5.88973 56.0078 4.81034H59.6247L59.7344 7.14892H59.8316C60.4646 5.29803 61.6793 4.59485 62.9287 4.52404C63.5227 4.48946 63.8442 4.5315 64.2119 4.6026V8.28115C63.8599 8.21227 63.1616 8.13122 62.6706 8.17631C61.1931 8.31213 60.299 9.38571 60.0481 10.6217C59.9977 10.8778 59.9717 11.1622 59.9717 11.495V17.3912H56.1463V8.94809H56.1449Z" fill="white"/>
<path d="M77.7042 11.1001C77.7042 15.2235 75.2173 17.9236 71.1876 17.9236C67.157 17.9236 64.6685 15.2235 64.6685 11.1001C64.6685 6.97622 67.157 4.27637 71.1876 4.27637C75.2173 4.27637 77.7042 6.9765 77.7042 11.1001ZM73.7237 11.1001C73.7237 9.05284 73.0193 7.27083 71.1876 7.27083C69.3534 7.27083 68.6525 9.05256 68.6525 11.1001C68.6525 13.1494 69.3534 14.9286 71.1876 14.9286C73.0198 14.9286 73.7237 13.1494 73.7237 11.1001Z" fill="white"/>
<path d="M79.4117 8.82132C79.4117 7.2512 79.3541 5.91068 79.2729 4.81027H82.8899L82.9726 6.57043H83.0502C83.5511 5.7519 84.8766 4.40723 86.9448 4.40723C89.476 4.40723 91.1283 6.13364 91.1283 9.83709V17.3914H87.2923V10.4152C87.2923 8.79642 86.7363 7.68965 85.3482 7.68965C84.2838 7.68965 83.6228 8.43737 83.3775 9.1541C83.2867 9.41662 83.2495 9.77318 83.2495 10.1333V17.3911H79.4117V8.82132Z" fill="white"/>
<path d="M0.742859 50.3216V21.0566L46.4571 35.6899L0.742859 50.3216Z" fill="white"/>
<path d="M0.742859 50.9314L46.0013 65.8686L91.2571 50.9314V21.0566L46.0013 35.9919L0.742859 50.9314Z" fill="white"/>
<path d="M0.746792 85.9881L0.742859 55.8086L46.4571 70.8935L0.746792 85.9881Z" fill="white"/>
<path d="M91.2571 55.8086L45.9892 70.7388L0.742859 85.6826L45.9978 100.621L91.2571 85.6779V55.8086Z" fill="white"/>
</svg>
