<svg width="52" height="38" viewBox="0 0 52 38" fill="none" xmlns="http://www.w3.org/2000/svg">
<path d="M50.5344 6.11914C49.9437 3.80469 48.2094 1.98828 46.0062 1.37305C42.0125 0.25 26 0.25 26 0.25C26 0.25 9.9875 0.25 5.99375 1.37305C3.79063 1.98828 2.05626 3.80469 1.46563 6.11914C0.396881 10.3086 0.396881 19.0391 0.396881 19.0391C0.396881 19.0391 0.396881 27.7695 1.46563 31.959C2.05626 34.2734 3.79063 36.0117 5.99375 36.627C9.9875 37.75 26 37.75 26 37.75C26 37.75 42.0125 37.75 46.0062 36.627C48.2094 36.0117 49.9437 34.2637 50.5344 31.959C51.6031 27.7695 51.6031 19.0391 51.6031 19.0391C51.6031 19.0391 51.6031 10.3086 50.5344 6.11914ZM20.7688 26.9688V11.1094L34.1469 19.0391L20.7688 26.9688Z" fill="white"/>
</svg>
