<svg width="160" height="85" viewBox="0 0 160 85" fill="none" xmlns="http://www.w3.org/2000/svg">
<path d="M108.229 32.8653C107.233 32.1251 105.651 31.6514 104.127 31.681C102.457 31.7106 100.875 32.2435 99.7619 33.1317V22.5322H94.576V57.1139H99.7619V39.0533C99.7619 37.8098 100.817 36.4182 102.75 36.3294C103.6 36.2998 104.801 36.6847 105.417 37.6025C106.061 38.5499 106.032 39.8527 106.032 41.2442L106.003 57.1139H111.188V41.0666C111.188 36.3294 110.602 34.6417 108.229 32.8653Z" fill="white"/>
<path d="M66.0392 44.7376C66.0392 48.1129 65.922 49.0603 65.8927 49.3564C65.7169 51.2513 64.9258 53.235 62.7577 53.235C60.6189 53.235 59.74 51.1033 59.6521 49.2676C59.6228 49.2676 59.5056 48.1129 59.5056 44.7376C59.5056 41.3624 59.6228 39.9412 59.6521 39.9412C59.6521 38.0167 60.6482 36.1218 62.7577 36.1218C64.8965 36.1218 65.8634 38.0167 65.8927 39.9116C65.8927 39.9412 66.0392 41.3624 66.0392 44.7376ZM71.0493 40.6518C70.3168 33.2795 66.1564 31.6807 62.7577 31.6807C57.9234 31.6807 54.9936 34.7895 54.4662 40.6518C54.4076 41.1255 54.349 41.9841 54.3197 44.7376C54.2904 46.751 54.4369 48.409 54.4662 48.8235C54.7885 54.3009 57.8941 57.6466 62.7577 57.6466C67.6213 57.6466 70.727 54.2417 71.0786 48.8235C71.1078 48.4386 71.1957 46.751 71.1957 44.7376C71.1957 43.8198 71.1371 41.3624 71.0493 40.6518Z" fill="white"/>
<path d="M119.861 41.6288C119.89 40.4741 119.89 40.2373 119.919 39.9116C120.066 37.8391 120.974 36.1218 123.084 36.1218C125.574 36.0922 126.16 38.5496 126.248 39.9116C126.307 40.6518 126.336 41.1255 126.336 41.6288H119.861ZM126.277 48.557C126.277 48.557 126.277 48.9419 126.219 49.4156C126.072 50.6295 125.603 53.235 123.084 53.235C120.916 53.235 120.095 51.2513 119.949 49.2972C119.919 48.7347 119.832 48.1129 119.832 45.9811H131.405C131.405 45.9811 131.405 44.2343 131.375 43.198C131.375 42.7835 131.346 42.1026 131.258 40.6518C131.082 38.4312 130.262 36.0034 129.002 34.4638C127.566 32.6281 125.515 31.6807 123.084 31.6807C118.396 31.6807 115.466 34.7599 114.909 40.6518C114.851 41.1847 114.763 41.9249 114.763 44.7376C114.763 46.751 114.88 48.4386 114.909 48.8235C115.202 54.2121 118.367 57.6466 123.084 57.6466C127.771 57.6466 130.906 54.3009 131.258 48.557H126.277Z" fill="white"/>
<path d="M37.9125 4.88624H122.234L154.463 43.0208L122.234 80.6225H37.9125L5.53744 42.9024L37.9125 4.88624ZM124.256 0.652344H35.8615L0 42.7544L35.8909 84.5899H124.256L160 42.9024L124.256 0.652344Z" fill="white"/>
<path d="M38.9672 27.24H41.399C44.0652 27.24 45.5301 28.6611 45.5887 31.2074C45.5887 31.4146 45.618 31.6219 45.618 32.0068C45.618 32.4805 45.618 32.6285 45.5887 32.8358C45.4422 34.3458 44.7684 36.9809 41.6627 36.9809H38.9672V27.24ZM51.2434 54.9527L50.716 46.4849C50.4816 42.6951 49.5147 40.445 47.5517 39.2902C48.9581 38.4316 50.7746 36.3295 50.7453 31.918C50.7453 25.2266 46.6142 22.858 41.7506 22.7988H33.84V57.114H38.9379L38.9672 41.422H41.8092C43.4499 41.422 45.2958 42.8728 45.5887 46.9586L46.1161 54.9823C46.1747 56.137 46.3798 57.114 46.3798 57.114H51.5071C51.5071 57.114 51.2727 56.1666 51.2434 54.9527Z" fill="white"/>
<path d="M86.1966 48.3201C86.1966 48.705 86.1673 49.0307 86.138 49.2676C85.9916 51.1921 85.347 53.235 83.0031 53.235C80.8643 53.235 80.0146 51.0145 79.8389 49.386C79.7509 48.409 79.7802 47.6392 79.7509 44.7376C79.7216 41.3624 79.8389 40.4741 79.8974 39.9412C80.0732 37.7798 80.8936 36.1218 83.0031 36.1218C85.2005 36.0922 86.1088 38.0167 86.138 39.9116C86.138 39.9412 86.1967 40.3853 86.226 41.392H91.3532C91.3532 41.0367 91.3239 40.7406 91.3239 40.5926C90.7379 33.4275 86.4017 31.6807 83.0031 31.6807C78.1688 31.6807 75.2389 34.7895 74.7116 40.6518C74.653 41.1255 74.5944 41.9841 74.5651 44.7376C74.5358 46.751 74.6823 48.409 74.7116 48.8235C75.0338 54.3009 78.1395 57.6466 83.0031 57.6466C88.0425 57.6762 90.8258 54.5674 91.3239 48.8235C91.3239 48.6162 91.3532 48.4682 91.3532 48.3201H86.1966Z" fill="white"/>
</svg>
