<svg width="41" height="41" viewBox="0 0 41 41" fill="none" xmlns="http://www.w3.org/2000/svg">
<path d="M41 20.5C41 9.17695 31.823 0 20.5 0C9.17695 0 0 9.17695 0 20.5C0 30.1094 6.62246 38.1813 15.5512 40.3994V26.7621H11.323V20.5H15.5512V17.8014C15.5512 10.8266 18.7063 7.59141 25.5609 7.59141C26.8582 7.59141 29.1004 7.84766 30.0213 8.10391V13.7734C29.5408 13.7254 28.7 13.6934 27.651 13.6934C24.2877 13.6934 22.9904 14.9666 22.9904 18.2738V20.5H29.685L28.5318 26.7621H22.9824V40.8479C33.1363 39.6227 41 30.9822 41 20.5Z" fill="white"/>
</svg>
