<svg width="201" height="82" viewBox="0 0 201 82" fill="none" xmlns="http://www.w3.org/2000/svg">
<path d="M0.827576 43.9991C0.921008 43.7352 1.01444 43.4845 1.14792 43.2338C4.29793 36.9393 17.7656 34.3397 37.066 36.649L40.9502 22.5292C21.0891 20.0352 6.5937 22.8459 4.1778 31.7796L0.827576 43.9991Z" fill="white"/>
<path d="M73.3045 29.2988C73.2244 29.51 73.1443 29.7211 73.0509 29.9322C70.0343 36.3191 56.5133 38.9583 37.066 36.6358L33.1819 50.7555C53.043 53.2496 67.5383 50.4388 69.9542 41.5051L73.3045 29.2988Z" fill="white"/>
<path d="M13.5344 14.4137C42.8455 16.4986 72.7839 30.8295 69.9542 41.5315L72.5837 31.9776C73.4246 28.9689 73.8384 27.4117 73.8384 26.1581C73.8384 15.2582 44.941 1.95664 17.4185 0.293945L13.5344 14.4137Z" fill="white"/>
<path d="M60.5977 58.8712C31.2866 56.7994 1.34811 42.4686 4.19113 31.7666L1.56167 41.3205C0.720779 44.3292 0.307007 45.8863 0.307007 47.14C0.307007 58.0399 29.2043 71.3414 56.7269 73.0041L60.5977 58.8712Z" fill="white"/>
<path d="M167.511 55.5452C163.801 55.598 161.825 53.2623 161.825 49.1188C161.825 48.8416 161.838 48.5777 161.852 48.3138H176.427C176.721 47.2185 176.908 46.0309 176.908 44.9356C176.908 39.8816 173.771 36.0283 167.364 36.0283C160.811 36.0283 154.991 42.4152 154.991 49.1188C154.991 55.5452 159.236 59.4512 166.31 59.4512C169.446 59.4512 172.53 58.4088 174.692 56.7856L173.344 53.4471C171.662 54.7403 169.593 55.5056 167.511 55.5452ZM167.471 39.644C169.633 39.644 170.741 41.0296 170.741 44.0779C170.741 44.3682 170.728 44.6717 170.688 44.9884H162.372C163.28 41.7686 165.215 39.644 167.471 39.644Z" fill="white"/>
<path d="M109.81 34.6032C109.81 29.3644 105.672 25.5508 99.3989 25.5508H87.266L78.1096 58.8839H85.7711L89.148 46.5984H95.7951C103.403 46.5984 109.81 41.7423 109.81 34.6032ZM92.8586 42.6924H90.2291L93.8597 29.4568H96.6226C100.106 29.4568 102.068 31.7925 102.068 34.8804C102.055 39.8289 98.1309 42.6924 92.8586 42.6924Z" fill="white"/>
<path d="M119.794 36.6489L120.648 33.5478C121.075 31.9247 121.809 29.1667 122.81 25.9733C123.865 22.6875 125.8 20.6421 128.403 20.6421C129.658 20.6421 130.432 21.2096 130.432 22.1597C130.378 23.2022 129.511 23.8224 129.511 25.4983C129.511 27.4513 131.193 28.9688 133.368 28.9688C136.064 28.9688 138.227 26.8311 138.227 24.2051C138.227 20.1539 134.716 17.4883 129.364 17.4883C121.516 17.4883 116.364 22.4368 113.133 34.0097L100.026 81.1062H107.447L118.766 40.291H126.481L121.409 58.8578H128.83L134.903 36.6225H119.794V36.6489Z" fill="white"/>
<path d="M157.354 36.6484H137.706L136.732 40.3169H146.249L131.486 58.8837H152.295L153.256 55.2152H142.551L157.354 36.6484Z" fill="white"/>
<path d="M196.275 36.2666C193.619 36.2666 190.789 37.9689 188.573 41.4922L189.868 36.6493H182.447L176.374 58.8846H183.795L186.545 48.882C187.652 44.7912 190.349 40.7928 192.137 40.7928C194.059 40.7928 193.339 44.369 196.662 44.369C199.065 44.369 200.519 42.1784 200.519 40.1726C200.506 37.8369 198.637 36.2666 196.275 36.2666Z" fill="white"/>
</svg>
