<svg width="29" height="30" viewBox="0 0 29 30" fill="none" xmlns="http://www.w3.org/2000/svg">
<path d="M14.5 3.33984C17.6246 3.33984 20.6212 4.58108 22.8306 6.79049C25.04 8.99991 26.2812 11.9965 26.2812 15.1211C26.2812 18.2457 25.04 21.2423 22.8306 23.4517C20.6212 25.6611 17.6246 26.9023 14.5 26.9023C11.3754 26.9023 8.37881 25.6611 6.1694 23.4517C3.95999 21.2423 2.71875 18.2457 2.71875 15.1211C2.71875 11.9965 3.95999 8.99991 6.1694 6.79049C8.37881 4.58108 11.3754 3.33984 14.5 3.33984ZM14.5 29.6211C18.3456 29.6211 22.0338 28.0934 24.753 25.3741C27.4723 22.6549 29 18.9667 29 15.1211C29 11.2755 27.4723 7.58732 24.753 4.86805C22.0338 2.14877 18.3456 0.621094 14.5 0.621094C10.6544 0.621094 6.96623 2.14877 4.24695 4.86805C1.52767 7.58732 0 11.2755 0 15.1211C0 18.9667 1.52767 22.6549 4.24695 25.3741C6.96623 28.0934 10.6544 29.6211 14.5 29.6211ZM11.2941 18.327C9.52695 16.5598 9.52695 13.6881 11.2941 11.9209C13.0613 10.1537 15.933 10.1537 17.7002 11.9209C18.2326 12.4533 19.0936 12.4533 19.6203 11.9209C20.1471 11.3885 20.1527 10.5275 19.6203 10.0008C16.7883 7.16875 12.2004 7.16875 9.36836 10.0008C6.53633 12.8328 6.53633 17.4207 9.36836 20.2527C12.2004 23.0848 16.7883 23.0848 19.6203 20.2527C20.1527 19.7203 20.1527 18.8594 19.6203 18.3326C19.0879 17.8059 18.227 17.8002 17.7002 18.3326C15.933 20.0998 13.0613 20.0998 11.2941 18.3326V18.327Z" fill="white"/>
</svg>
